HIERARCHY
ROOT Pelvis
{
	OFFSET 0.000000 0.941512 0.000000
	CHANNELS 6 Xposition Yposition Zposition Zrotation Yrotation Xrotation 
	JOINT Pelvis_L_Hip
	{
		OFFSET 0.000000 0.000000 0.000000
		CHANNELS 3 Zrotation Yrotation Xrotation
		JOINT L_Hip
		{
			OFFSET 0.062321 -0.080322 -0.016990
			CHANNELS 3 Zrotation Yrotation Xrotation
			JOINT L_Knee
			{
				OFFSET 0.093051 -0.381305 -0.029784
				CHANNELS 3 Zrotation Yrotation Xrotation
				JOINT L_Ankle
				{
					OFFSET -0.010371 -0.431000 -0.033614
					CHANNELS 3 Zrotation Yrotation Xrotation
					End Site #name: L_Foot
					{
						OFFSET 0.069299 -0.038670 0.119418
					}
				}
			}
		}
	}
	JOINT Pelvis_R_Hip
	{
		OFFSET 0.000000 0.000000 0.000000
		CHANNELS 3 Zrotation Yrotation Xrotation
		JOINT R_Hip
		{
			OFFSET -0.055334 -0.094904 -0.002373
			CHANNELS 3 Zrotation Yrotation Xrotation
			JOINT R_Knee
			{
				OFFSET -0.064207 -0.384370 -0.019592
				CHANNELS 3 Zrotation Yrotation Xrotation
				JOINT R_Ankle
				{
					OFFSET 0.025418 -0.419734 -0.065953
					CHANNELS 3 Zrotation Yrotation Xrotation
					End Site #name: R_Foot
					{
						OFFSET -0.057233 -0.039888 0.132134
					}
				}
			}
		}
	}
	JOINT Pelvis_Spine1
	{
		OFFSET 0.000000 0.000000 0.000000
		CHANNELS 3 Zrotation Yrotation Xrotation
		JOINT Spine1
		{
			OFFSET -0.005562 0.124093 -0.043360
			CHANNELS 3 Zrotation Yrotation Xrotation
			JOINT Spine2
			{
				OFFSET 0.012244 0.139499 0.029894
				CHANNELS 3 Zrotation Yrotation Xrotation
				JOINT Spine3
				{
					OFFSET -0.002556 0.056561 0.009225
					CHANNELS 3 Zrotation Yrotation Xrotation
					JOINT Spine3_Neck
					{
						OFFSET 0.000000 0.000000 0.000000
						CHANNELS 3 Zrotation Yrotation Xrotation
						JOINT Neck
						{
							OFFSET -0.005205 0.217920 -0.024551
							CHANNELS 3 Zrotation Yrotation Xrotation
							End Site #name: Head
							{
								OFFSET 0.002365 0.091850 0.046637
							}
						}
					}
					JOINT Spine3_L_Collar
					{
						OFFSET 0.000000 0.000000 0.000000
						CHANNELS 3 Zrotation Yrotation Xrotation
						JOINT L_Collar
						{
							OFFSET 0.072225 0.116603 -0.009480
							CHANNELS 3 Zrotation Yrotation Xrotation
							JOINT L_Shoulder
							{
								OFFSET 0.115937 -0.058643 -0.021018
								CHANNELS 3 Zrotation Yrotation Xrotation
								JOINT L_Elbow
								{
									OFFSET 0.021994 -0.254722 -0.024492
									CHANNELS 3 Zrotation Yrotation Xrotation
									End Site #name: L_Wrist
									{
										OFFSET 0.048810 -0.240214 0.103329
									}
								}
							}
						}
					}
					JOINT Spine3_R_Collar
					{
						OFFSET 0.000000 0.000000 0.000000
						CHANNELS 3 Zrotation Yrotation Xrotation
						JOINT R_Collar
						{
							OFFSET -0.073372 0.120704 -0.024611
							CHANNELS 3 Zrotation Yrotation Xrotation
							JOINT R_Shoulder
							{
								OFFSET -0.108089 -0.054969 -0.020504
								CHANNELS 3 Zrotation Yrotation Xrotation
								JOINT R_Elbow
								{
									OFFSET -0.033684 -0.260739 0.009889
									CHANNELS 3 Zrotation Yrotation Xrotation
									End Site #name: R_Wrist
									{
										OFFSET -0.067980 -0.232763 0.118463
									}
								}
							}
						}
					}
				}
			}
		}
	}
}
MOTION
Frames: 7
Frame Time: 0.041667
0.032970 0.799377 0.055308 3.545725 0.990439 11.344389 0.000000 0.000000 0.000000 -3.601323 -11.989525 -44.114457 -8.403786 4.864917 72.544296 15.170406 15.210662 -22.262959 0.000000 0.000000 0.000000 -4.081797 6.462486 -47.409788 -0.714707 6.572276 77.776337 -7.533533 -1.684161 -17.436422 0.000000 0.000000 0.000000 -2.322914 -2.452611 37.219893 0.021796 -0.698105 -15.383455 2.884183 5.590123 9.617229 0.000000 0.000000 0.000000 -4.602547 1.893558 -26.496494 0.000000 0.000000 0.000000 8.631350 -8.969102 -3.560089 -5.198634 -0.448222 -7.417329 0.436270 0.147130 -0.204950 0.000000 0.000000 0.000000 -17.672337 18.163644 -10.440879 9.323788 -1.763976 9.211034 -4.485557 -1.397120 -3.639127 
0.032875 0.779100 0.082697 3.096085 1.224069 9.597752 0.000000 0.000000 0.000000 -4.054944 -11.561610 -41.963486 -8.355373 5.136106 77.410645 16.158917 15.754315 -24.386580 0.000000 0.000000 0.000000 -3.301024 6.563260 -46.289273 0.343361 6.121208 84.101568 -7.490507 -1.368637 -17.426505 0.000000 0.000000 0.000000 -1.826992 -2.610837 35.504629 -0.047839 -0.679793 -14.959423 2.766776 5.945793 8.625625 0.000000 0.000000 0.000000 -4.233195 1.773561 -27.497311 0.000000 0.000000 0.000000 7.814669 -12.669747 -5.980768 -2.432512 -1.333120 -14.701215 1.878682 -0.943870 -9.224769 0.000000 0.000000 0.000000 -18.666153 21.583083 -13.304352 7.862348 -0.535438 3.547167 -8.999424 -2.549975 -10.189492 
0.030018 0.775308 0.115893 2.262606 1.768223 8.481642 0.000000 0.000000 0.000000 -4.734899 -10.712476 -38.269081 -6.911880 3.649120 79.176310 16.559540 15.223090 -25.571279 0.000000 0.000000 0.000000 -0.662757 6.793650 -42.283703 -1.059137 7.847982 85.486311 -7.448478 0.393363 -18.041683 0.000000 0.000000 0.000000 -1.656568 -2.387393 31.550556 0.552119 -0.698758 -14.760900 3.068150 6.330024 8.495082 0.000000 0.000000 0.000000 -3.997477 1.656602 -29.802755 0.000000 0.000000 0.000000 11.304695 -15.947732 -7.875805 2.598809 -1.928607 -26.846139 6.661671 -0.891592 -25.143583 0.000000 0.000000 0.000000 -22.453903 23.799901 -15.778607 4.636845 0.756601 -3.920091 -15.573617 -5.229616 -20.511639 
0.026750 0.802115 0.164733 0.859888 0.997205 7.510482 0.000000 0.000000 0.000000 -4.069064 -7.923349 -29.564346 -6.309658 3.042430 72.031272 15.656542 13.463796 -24.212806 0.000000 0.000000 0.000000 2.902763 6.405766 -33.994642 -3.442828 9.874354 78.683934 -6.654733 2.783054 -17.112521 0.000000 0.000000 0.000000 -1.026182 -2.114557 26.399239 0.275657 -0.616419 -13.317813 4.177548 5.372827 7.020881 0.000000 0.000000 0.000000 -4.920060 1.819047 -30.071128 0.000000 0.000000 0.000000 22.755256 -21.467002 -12.224157 14.820092 0.064586 -32.726736 19.914866 8.711834 -37.464774 0.000000 0.000000 0.000000 -32.533557 27.386079 -20.989920 -2.469892 1.132388 -11.497181 -24.335486 -11.331018 -27.800989 
0.030993 0.862116 0.237425 -0.132091 -0.294434 8.592868 0.000000 0.000000 0.000000 -3.118987 -4.711151 -18.638726 -5.396951 2.189788 56.990803 11.488401 6.731717 -18.279163 0.000000 0.000000 0.000000 2.844552 4.661804 -24.884195 -4.714666 9.039693 64.453188 -2.689176 8.702642 -10.737142 0.000000 0.000000 0.000000 0.953041 -1.834313 15.966042 -0.516324 -0.394953 -9.833817 4.561885 4.886736 4.508850 0.000000 0.000000 0.000000 -5.659386 2.011904 -28.459826 0.000000 0.000000 0.000000 33.538139 -22.936844 -14.580669 25.938846 2.096395 -31.984873 34.874875 20.627918 -32.820858 0.000000 0.000000 0.000000 -43.880018 27.595157 -23.679195 -8.830467 0.479390 -15.561220 -33.207267 -18.497455 -30.348582 
0.039651 0.953090 0.341233 -0.219823 -0.557879 9.751231 0.000000 0.000000 0.000000 -4.233778 -1.723565 -7.585486 0.319713 -0.961326 38.528762 -5.338392 -4.242170 6.521482 0.000000 0.000000 0.000000 1.553514 2.375277 -13.590818 -8.461684 8.030619 43.259617 13.376254 16.236480 15.151565 0.000000 0.000000 0.000000 3.225043 -1.265257 4.304724 -0.893611 -0.379905 -10.171152 4.028150 4.600173 1.726860 0.000000 0.000000 0.000000 -4.655310 2.051059 -17.192942 0.000000 0.000000 0.000000 33.216002 -19.790822 -11.342963 24.132307 1.851684 -32.731688 36.425877 21.878964 -33.720689 0.000000 0.000000 0.000000 -45.084185 23.382693 -18.173355 -9.718620 0.440713 -18.237030 -31.130841 -17.030776 -36.145566 
0.036437 1.046544 0.444450 -0.769873 0.088017 10.682974 0.000000 0.000000 0.000000 -4.132917 -0.620838 -3.655321 6.376898 -2.527545 24.989468 -24.490225 -0.314408 36.835389 0.000000 0.000000 0.000000 3.440902 1.361204 -8.004577 -14.252309 7.799876 27.550958 32.824265 8.565820 50.518858 0.000000 0.000000 0.000000 5.709885 -0.436701 -6.360309 -1.299392 -0.283070 -8.855292 2.565543 4.675328 -1.238480 0.000000 0.000000 0.000000 -3.064420 1.558426 -5.517971 0.000000 0.000000 0.000000 27.375140 -16.748554 -8.227843 19.537144 0.910737 -32.356657 31.281453 18.322329 -38.434936 0.000000 0.000000 0.000000 -42.222104 21.244229 -15.100555 -8.453762 0.500575 -14.922853 -27.232097 -13.310972 -38.480150 
